<mxfile host="65bd71144e">
    <diagram id="D4beBnn9pYupB73Y1aRw" name="Page-1">
        <mxGraphModel dx="807" dy="520" grid="0" gridSize="10" guides="1" tooltips="1" connect="1" arrows="1" fold="1" page="1" pageScale="1" pageWidth="850" pageHeight="1100" background="#ffffff" math="0" shadow="0">
            <root>
                <mxCell id="0"/>
                <mxCell id="1" parent="0"/>
                <mxCell id="20" value="&lt;span style=&quot;color: rgb(0, 0, 0); font-family: Calibri, sans-serif; text-align: start; background-color: rgb(241, 241, 241);&quot;&gt;&lt;font style=&quot;font-size: 15px;&quot;&gt;Diagramme d'activitÃ© &quot;Inscription&quot;&lt;/font&gt;&lt;/span&gt;" style="swimlane;childLayout=stackLayout;resizeParent=1;resizeParentMax=0;startSize=20;html=1;fontColor=#333333;labelBackgroundColor=none;fillColor=#f5f5f5;strokeColor=#666666;" vertex="1" parent="1">
                    <mxGeometry x="258" y="67" width="503" height="1005" as="geometry"/>
                </mxCell>
                <mxCell id="39" value="" style="endArrow=classic;html=1;fontSize=15;fontColor=#050505;entryX=0;entryY=0.5;entryDx=0;entryDy=0;strokeColor=#090707;strokeWidth=2;exitX=1;exitY=0.5;exitDx=0;exitDy=0;" edge="1" parent="20" source="27" target="31">
                    <mxGeometry width="50" height="50" relative="1" as="geometry">
                        <mxPoint x="141.5" y="88" as="sourcePoint"/>
                        <mxPoint x="141.5" y="134" as="targetPoint"/>
                    </mxGeometry>
                </mxCell>
                <mxCell id="21" value="Conducteur (passager)" style="swimlane;startSize=20;html=1;strokeColor=#666666;fillColor=#f5f5f5;fontColor=#333333;" vertex="1" parent="20">
                    <mxGeometry y="20" width="255" height="985" as="geometry"/>
                </mxCell>
                <mxCell id="27" value="s'incrire" style="rounded=1;whiteSpace=wrap;html=1;labelBackgroundColor=none;strokeColor=#070603;fontSize=15;fontColor=#000000;fillColor=#f0a30a;strokeWidth=2;" vertex="1" parent="21">
                    <mxGeometry x="71.5" y="104" width="120" height="60" as="geometry"/>
                </mxCell>
                <mxCell id="29" value="" style="ellipse;whiteSpace=wrap;html=1;aspect=fixed;labelBackgroundColor=none;strokeColor=#000000;fontSize=15;fontColor=#050505;" vertex="1" parent="21">
                    <mxGeometry x="120" y="35" width="23" height="23" as="geometry"/>
                </mxCell>
                <mxCell id="30" value="Remplir formulaire d'inscription" style="rounded=1;whiteSpace=wrap;html=1;labelBackgroundColor=none;strokeColor=#0c0804;fontSize=15;fontColor=#000000;fillColor=#f0a30a;strokeWidth=2;" vertex="1" parent="21">
                    <mxGeometry x="39" y="275" width="157" height="60" as="geometry"/>
                </mxCell>
                <mxCell id="35" value="Confirmer&amp;nbsp;&lt;br&gt;inscription" style="rounded=1;whiteSpace=wrap;html=1;labelBackgroundColor=none;strokeColor=#0b0a09;fontSize=15;fontColor=#000000;fillColor=#f0a30a;strokeWidth=2;" vertex="1" parent="21">
                    <mxGeometry x="54" y="726" width="120" height="60" as="geometry"/>
                </mxCell>
                <mxCell id="38" value="" style="endArrow=classic;html=1;fontSize=15;fontColor=#050505;entryX=0.5;entryY=0;entryDx=0;entryDy=0;strokeColor=#090707;strokeWidth=2;" edge="1" parent="21" source="29" target="27">
                    <mxGeometry width="50" height="50" relative="1" as="geometry">
                        <mxPoint x="153" y="277" as="sourcePoint"/>
                        <mxPoint x="203" y="227" as="targetPoint"/>
                    </mxGeometry>
                </mxCell>
                <mxCell id="22" value="System" style="swimlane;startSize=20;html=1;strokeColor=#666666;fillColor=#f5f5f5;fontColor=#333333;" vertex="1" parent="20">
                    <mxGeometry x="255" y="20" width="248" height="985" as="geometry">
                        <mxRectangle x="255" y="20" width="32" height="985" as="alternateBounds"/>
                    </mxGeometry>
                </mxCell>
                <mxCell id="28" value="" style="rhombus;whiteSpace=wrap;html=1;labelBackgroundColor=none;strokeColor=#0c0b09;fontSize=15;fontColor=#000000;fillColor=#e3c800;strokeWidth=3;" vertex="1" parent="22">
                    <mxGeometry x="82" y="413" width="80" height="80" as="geometry"/>
                </mxCell>
                <mxCell id="31" value="demander de remplir formulaire d'inscription" style="rounded=1;whiteSpace=wrap;html=1;labelBackgroundColor=none;strokeColor=#050803;fontSize=15;fontColor=#ffffff;fillColor=#60a917;strokeWidth=2;" vertex="1" parent="22">
                    <mxGeometry x="54" y="97.5" width="136" height="73" as="geometry"/>
                </mxCell>
                <mxCell id="32" value="verifier informations&lt;br&gt;personneles saisies" style="rounded=1;whiteSpace=wrap;html=1;labelBackgroundColor=none;strokeColor=#070907;fontSize=15;fontColor=#ffffff;fillColor=#60a917;strokeWidth=2;" vertex="1" parent="22">
                    <mxGeometry x="54" y="268.5" width="136" height="73" as="geometry"/>
                </mxCell>
                <mxCell id="34" value="Envoyer mail de confirmation" style="rounded=1;whiteSpace=wrap;html=1;labelBackgroundColor=none;strokeColor=#0a0c09;fontSize=15;fontColor=#ffffff;fillColor=#60a917;strokeWidth=2;" vertex="1" parent="22">
                    <mxGeometry x="54" y="550" width="136" height="73" as="geometry"/>
                </mxCell>
                <mxCell id="36" value="Enregistrer confirmation d'inscription" style="rounded=1;whiteSpace=wrap;html=1;labelBackgroundColor=none;strokeColor=#070a05;fontSize=15;fontColor=#ffffff;fillColor=#60a917;strokeWidth=2;" vertex="1" parent="22">
                    <mxGeometry x="64" y="719.5" width="136" height="73" as="geometry"/>
                </mxCell>
                <mxCell id="37" value="" style="ellipse;whiteSpace=wrap;html=1;aspect=fixed;labelBackgroundColor=none;strokeColor=#000000;fontSize=15;fontColor=#050505;" vertex="1" parent="22">
                    <mxGeometry x="122.5" y="919" width="23" height="23" as="geometry"/>
                </mxCell>
                <mxCell id="42" value="" style="endArrow=classic;html=1;fontSize=15;fontColor=#050505;entryX=0.5;entryY=0;entryDx=0;entryDy=0;strokeColor=#090707;strokeWidth=2;exitX=0.5;exitY=1;exitDx=0;exitDy=0;" edge="1" parent="22" source="32" target="28">
                    <mxGeometry width="50" height="50" relative="1" as="geometry">
                        <mxPoint x="80" y="384" as="sourcePoint"/>
                        <mxPoint x="197.5" y="384" as="targetPoint"/>
                    </mxGeometry>
                </mxCell>
                <mxCell id="43" value="" style="endArrow=classic;html=1;fontSize=15;fontColor=#050505;entryX=1;entryY=0.5;entryDx=0;entryDy=0;strokeColor=#090707;strokeWidth=2;exitX=1;exitY=0.5;exitDx=0;exitDy=0;" edge="1" parent="22" source="28" target="31">
                    <mxGeometry width="50" height="50" relative="1" as="geometry">
                        <mxPoint x="134" y="386" as="sourcePoint"/>
                        <mxPoint x="251.5" y="386" as="targetPoint"/>
                        <Array as="points">
                            <mxPoint x="231" y="453"/>
                            <mxPoint x="231" y="134"/>
                        </Array>
                    </mxGeometry>
                </mxCell>
                <mxCell id="44" value="" style="endArrow=classic;html=1;fontSize=15;fontColor=#050505;strokeColor=#090707;strokeWidth=2;exitX=0.5;exitY=1;exitDx=0;exitDy=0;" edge="1" parent="22" source="28" target="34">
                    <mxGeometry width="50" height="50" relative="1" as="geometry">
                        <mxPoint x="82" y="477" as="sourcePoint"/>
                        <mxPoint x="82" y="548.5" as="targetPoint"/>
                    </mxGeometry>
                </mxCell>
                <mxCell id="47" value="" style="endArrow=classic;html=1;fontSize=15;fontColor=#050505;strokeColor=#090707;strokeWidth=2;exitX=0.5;exitY=1;exitDx=0;exitDy=0;entryX=0.5;entryY=0;entryDx=0;entryDy=0;" edge="1" parent="22" source="36" target="37">
                    <mxGeometry width="50" height="50" relative="1" as="geometry">
                        <mxPoint x="159" y="827" as="sourcePoint"/>
                        <mxPoint x="180" y="895" as="targetPoint"/>
                    </mxGeometry>
                </mxCell>
                <mxCell id="51" value="informations non correctes" style="text;html=1;strokeColor=none;fillColor=none;align=center;verticalAlign=middle;whiteSpace=wrap;rounded=0;labelBackgroundColor=none;fontSize=15;fontColor=#050505;" vertex="1" parent="22">
                    <mxGeometry x="145.5" y="392" width="83" height="50" as="geometry"/>
                </mxCell>
                <mxCell id="52" value="informations correctes" style="text;html=1;strokeColor=none;fillColor=none;align=center;verticalAlign=middle;whiteSpace=wrap;rounded=0;labelBackgroundColor=none;fontSize=15;fontColor=#050505;" vertex="1" parent="22">
                    <mxGeometry x="125" y="493" width="93" height="50" as="geometry"/>
                </mxCell>
                <mxCell id="40" value="" style="endArrow=classic;html=1;fontSize=15;fontColor=#050505;entryX=0.5;entryY=0;entryDx=0;entryDy=0;strokeColor=#090707;strokeWidth=2;exitX=0.5;exitY=1;exitDx=0;exitDy=0;" edge="1" parent="20" source="31" target="30">
                    <mxGeometry width="50" height="50" relative="1" as="geometry">
                        <mxPoint x="359" y="197" as="sourcePoint"/>
                        <mxPoint x="284" y="248" as="targetPoint"/>
                        <Array as="points">
                            <mxPoint x="377" y="232"/>
                            <mxPoint x="118" y="232"/>
                        </Array>
                    </mxGeometry>
                </mxCell>
                <mxCell id="41" value="" style="endArrow=classic;html=1;fontSize=15;fontColor=#050505;entryX=0;entryY=0.5;entryDx=0;entryDy=0;strokeColor=#090707;strokeWidth=2;exitX=1;exitY=0.5;exitDx=0;exitDy=0;" edge="1" parent="20" source="30" target="32">
                    <mxGeometry width="50" height="50" relative="1" as="geometry">
                        <mxPoint x="210" y="299" as="sourcePoint"/>
                        <mxPoint x="327.5" y="299" as="targetPoint"/>
                    </mxGeometry>
                </mxCell>
                <mxCell id="45" value="" style="endArrow=classic;html=1;fontSize=15;fontColor=#050505;strokeColor=#090707;strokeWidth=2;exitX=0.5;exitY=1;exitDx=0;exitDy=0;entryX=0.5;entryY=0;entryDx=0;entryDy=0;" edge="1" parent="20" source="34" target="35">
                    <mxGeometry width="50" height="50" relative="1" as="geometry">
                        <mxPoint x="358" y="665" as="sourcePoint"/>
                        <mxPoint x="358" y="722" as="targetPoint"/>
                        <Array as="points">
                            <mxPoint x="377" y="700"/>
                            <mxPoint x="114" y="702"/>
                        </Array>
                    </mxGeometry>
                </mxCell>
                <mxCell id="46" value="" style="endArrow=classic;html=1;fontSize=15;fontColor=#050505;strokeColor=#090707;strokeWidth=2;exitX=1;exitY=0.5;exitDx=0;exitDy=0;entryX=0;entryY=0.5;entryDx=0;entryDy=0;" edge="1" parent="20" source="35" target="36">
                    <mxGeometry width="50" height="50" relative="1" as="geometry">
                        <mxPoint x="387" y="523" as="sourcePoint"/>
                        <mxPoint x="387" y="580" as="targetPoint"/>
                    </mxGeometry>
                </mxCell>
            </root>
        </mxGraphModel>
    </diagram>
</mxfile>